# xmcd
#
# Track frame offsets:
#	150
#	13486
#	27525
#	43169
#	57147
#	77898
#	90679
#	106057
#	123986
#	137830
#	152045
#	164469
#	180754
#	188176
#	205438
#	218128
#	233692
#	249994
#	267295
#	282050
#	299017
#	312746
#
# Disc length: 4417 seconds
#
# Revision: 1
# Processed by: cddbd v1.5.2PL0 Copyright (c) Steve Scherf et al.
# Submitted via: audiograbber 1.83.01
#
DISCID=44113f16
DTITLE=Artists Carousel - Artists Carousel 01
DYEAR=1900
DGENRE=
TTITLE0=Down By The Rainbow´s End  - Gene Hooper
TTITLE1=Gene Hooper  - Ken Wentworth
TTITLE2=The Orange Blossom Special  - George Moody
TTITLE3=Silence Says It All  - Jerry Lindsey
TTITLE4=Crazy  - Norma Baker
TTITLE5=The Fireman  - Russ Connell
TTITLE6=Truckstop Singing Bar - Everard And Roseanna
TTITLE7=As Calm As A Blue Lagoon  - Janet Wentworth
TTITLE8=Daddy´s Little Angel  - Florita
TTITLE9=Pure Country Girl  - Stevie Cee
TTITLE10=Brothers  - Slim Andrews
TTITLE11=When The Master  - Elzadia Parsons
TTITLE12=Foggy River  - Gene Hooper
TTITLE13=The Great Race  - Ken Wentworth
TTITLE14=Mind Over Memory  - Jerry Lindsey
TTITLE15=Victim Of Your Kind  - Norma Baker
TTITLE16=Sweet Music Man - Russ Connell
TTITLE17=Snap Your Finger  - Everard And Roseanna
TTITLE18=All I Need Is You - Janet Wentworth
TTITLE19=Love Does What I Wants  - Florita
TTITLE20=Hold That Thought  - Stevie Cee
TTITLE21=I Met A Friend Of Yours Today  - Slim Andrews
EXTD=
EXTT0=
EXTT1=
EXTT2=
EXTT3=
EXTT4=
EXTT5=
EXTT6=
EXTT7=
EXTT8=
EXTT9=
EXTT10=
EXTT11=
EXTT12=
EXTT13=
EXTT14=
EXTT15=
EXTT16=
EXTT17=
EXTT18=
EXTT19=
EXTT20=
EXTT21=
PLAYORDER=
